<?xml version="1.0" encoding="UTF-8"?> <!-- Generator: Adobe Illustrator 25.1.0, SVG Export Plug-In . SVG Version: 6.00 Build 0) --> <svg xmlns="http://www.w3.org/2000/svg" xmlns:xlink="http://www.w3.org/1999/xlink" version="1.1" id="Layer_1" x="0px" y="0px" viewBox="0 0 204.651 35.312" style="enable-background:new 0 0 204.651 35.312;" xml:space="preserve"> <g> <path style="fill:#6F625A;" d="M65.12,23.159l-0.081,1.793h0.245l0.325-1.793L70.584,7.87l0.611-3.466h7.012l-9.459,25.807h-8.602 l-2.69-25.807h6.645L65.12,23.159z"></path> <path style="fill:#6F625A;" d="M83.51,30.211c-0.489,0.204-1.386,0.408-2.16,0.408c-2.364,0-3.424-1.183-3.424-3.179 c0-0.286,0.04-0.816,0.081-1.101l1.917-15.451l5.543-0.326l-1.957,15.9V30.211z"></path> <path style="fill:#6F625A;" d="M93.336,30.211c-0.489,0.204-1.386,0.408-2.16,0.408c-2.364,0-3.424-1.183-3.424-3.179 c0-0.286,0.04-0.816,0.081-1.101l2.935-21.789l5.545-0.326L93.336,26.46V30.211z"></path> <path style="fill:#6F625A;" d="M103.284,30.211c-0.489,0.204-1.386,0.408-2.16,0.408c-2.364,0-3.424-1.183-3.424-3.179 c0-0.286,0.04-0.816,0.081-1.101l2.935-21.789l5.545-0.326l-2.976,22.238V30.211z"></path> <path style="fill:#6F625A;" d="M125.302,10.724l-0.734,3.343l-1.428,11.822v4.322c-0.408,0.163-1.141,0.408-2.038,0.408 c-2.12,0-2.69-1.1-2.936-2.732l-0.123-0.856h-0.204c-0.775,1.713-2.283,3.547-5.26,3.547c-3.668,0-5.707-2.976-5.707-7.338 c0-7.705,4.158-12.842,11.986-12.842C121.103,10.398,123.916,10.601,125.302,10.724z M119.105,15.167c0,0-0.611-0.081-1.019-0.081 c-3.792,0-5.463,3.466-5.463,7.46c0,1.835,0.571,3.139,2.079,3.139c2.732,0,3.547-3.343,4.036-7.501L119.105,15.167z"></path> <path style="fill:#6F625A;" d="M136.062,9.582l-0.611,5.136h9.132l-0.611,4.811h-9.132l-0.653,5.505h10.356l-0.653,5.177h-16.838 l0.734-3.384l2.773-22.423h16.144l-0.653,5.178H136.062z"></path> <path style="fill:#6F625A;" d="M153.024,30.211c-0.489,0.204-1.387,0.408-2.16,0.408c-2.364,0-3.424-1.183-3.424-3.179 c0-0.286,0.04-0.816,0.081-1.101l2.936-21.599l5.545-0.326l-2.977,22.047V30.211z"></path> <path style="fill:#6F625A;" d="M162.973,30.211c-0.489,0.204-1.386,0.408-2.16,0.408c-2.364,0-3.424-1.183-3.424-3.179 c0-0.286,0.04-0.816,0.081-1.101l1.917-15.451l5.543-0.326l-1.957,15.9V30.211z"></path> <path style="fill:#6F625A;" d="M180.505,15.493c-1.181-0.366-2.976-0.775-4.402-0.775c-1.468,0-2.896,0.368-2.896,1.509 c0,2.12,7.991,2.447,7.991,7.665c0,5.177-4.852,6.685-9.459,6.685c-2.242,0-5.055-0.529-6.277-0.978l1.549-4.362 c0.978,0.366,2.853,0.978,4.811,0.978c1.63,0,3.464-0.366,3.464-1.672c0-2.16-7.949-2.568-7.949-7.745 c0-4.73,4.525-6.361,8.969-6.401c2.405,0,5.136,0.53,5.749,0.693L180.505,15.493z"></path> <path style="fill:#6F625A;" d="M201.666,10.724l-0.734,3.343l-1.428,11.822v4.322c-0.408,0.163-1.141,0.408-2.038,0.408 c-2.12,0-2.69-1.1-2.936-2.732l-0.123-0.856h-0.204c-0.775,1.713-2.283,3.547-5.26,3.547c-3.668,0-5.707-2.976-5.707-7.338 c0-7.705,4.158-12.842,11.986-12.842C197.467,10.398,200.28,10.601,201.666,10.724z M195.469,15.167c0,0-0.611-0.081-1.019-0.081 c-3.792,0-5.463,3.466-5.463,7.46c0,1.835,0.571,3.139,2.079,3.139c2.732,0,3.547-3.343,4.036-7.501L195.469,15.167z"></path> <circle style="fill:#6F625A;" cx="83.141" cy="6.313" r="2.874"></circle> <circle style="fill:#6F625A;" cx="162.589" cy="6.313" r="2.874"></circle> </g> <linearGradient id="SVGID_1_" gradientUnits="userSpaceOnUse" x1="4.8723" y1="27.9249" x2="45.7715" y2="4.3117"> <stop offset="0.1663" style="stop-color:#00ABBD"></stop> <stop offset="0.2648" style="stop-color:#00AAB5"></stop> <stop offset="0.416" style="stop-color:#00A9A0"></stop> <stop offset="0.5148" style="stop-color:#00A88E"></stop> <stop offset="0.6178" style="stop-color:#24AF77"></stop> <stop offset="0.795" style="stop-color:#5CBB52"></stop> <stop offset="0.8805" style="stop-color:#72BF44"></stop> </linearGradient> <path style="fill:url(#SVGID_1_);" d="M33.679,20.493l3.01-0.328c6.459-0.717,11.93-2.964,11.93-9.199 c0-4.433-4.323-7.447-9.794-7.447c-4.496,0-8.113,1.511-10.739,3.983c-0.257-2.784-1.96-3.983-5.64-3.983 c-1.202,0-4.755,0.264-5.849,0.592v5.258c-0.37,3.005-0.415,3.53-0.699,5.67c-0.258,1.948-0.386,2.682-0.878,5.396h-0.474 L14.548,3.74L3.241,4.289l2.9,25.833h12.312c1.202-1.542,3.366-4.783,5.358-8.531c0.976,5.615,5.125,9.028,12.497,9.028 c3.117,0,6.184-0.55,8.371-1.099l2.411-7.715c-2.026,0.603-4.926,1.312-8.321,1.312C36.636,23.117,33.954,22.896,33.679,20.493z M33.774,15.447c0.343-2.315,1.429-4.389,3.348-4.389c1.034,0,1.724,0.494,1.724,1.579c0,2.218-2.414,2.953-5.072,3.104V15.447z"></path> </svg> 